# xmcd
#
# Track frame offsets:
#	150
#	16082
#	31330
#	45640
#	59866
#	75547
#	91271
#	108242
#	121427
#	141199
#	154437
#	171027
#
# Disc length: 2451 seconds
#
# Revision: 2
# Processed by: cddbd v1.5PL3 Copyright (c) Steve Scherf et al.
# Submitted via: EasyCDDAExtractor 6.5.7.1
#
DISCID=9909910c
DTITLE=Raça Fandangueira - A Vanera Pop Do Brasil
DYEAR=2004
DGENRE=Gaúchas
TTITLE0=Batidão
TTITLE1=Circulando
TTITLE2=Dança Como O Jabuti
TTITLE3=Galera Boa
TTITLE4=Doce Beijo
TTITLE5=Navegando
TTITLE6=Pirando O Cabeção
TTITLE7=Todo Mundo Balançando
TTITLE8=Pra Não Te Perder
TTITLE9=Levantar Poeira
TTITLE10=Teu Jeitinho
TTITLE11=Obrigado Senhor
EXTD=
EXTT0=
EXTT1=
EXTT2=
EXTT3=
EXTT4=
EXTT5=
EXTT6=
EXTT7=
EXTT8=
EXTT9=
EXTT10=
EXTT11=
PLAYORDER=
